<svg width="224" height="66" viewBox="0 0 224 66" fill="none" xmlns="http://www.w3.org/2000/svg">
<path d="M16.9474 28.16H29.0526V55H16.9474V28.16ZM33.8947 55H41.1579C43.8211 55 46 52.8 46 50.1111V28.1111H33.8947V55ZM41.1579 11H4.84211C2.17895 11 0 13.2 0 15.8889V23.2222H46V15.8889C46 13.2 43.8211 11 41.1579 11ZM0 50.1111C0 52.8 2.17895 55 4.84211 55H12.1053V28.1111H0V50.1111Z" fill="black"/>
<path d="M68.5711 44V21.28H78.2031C79.2485 21.28 80.2085 21.4933 81.0831 21.92C81.9578 22.3467 82.7151 22.9227 83.3551 23.648C84.0165 24.3733 84.5285 25.184 84.8911 26.08C85.2538 26.976 85.4351 27.8933 85.4351 28.832C85.4351 30.112 85.1365 31.328 84.5391 32.48C83.9418 33.632 83.1205 34.5707 82.0751 35.296C81.0298 36.0213 79.7925 36.384 78.3631 36.384H72.9871V44H68.5711ZM72.9871 32.512H78.1071C78.6405 32.512 79.1205 32.3627 79.5471 32.064C79.9738 31.7653 80.3151 31.3387 80.5711 30.784C80.8271 30.208 80.9551 29.5573 80.9551 28.832C80.9551 28.0427 80.8058 27.3707 80.5071 26.816C80.2298 26.2613 79.8565 25.8453 79.3871 25.568C78.9391 25.2907 78.4485 25.152 77.9151 25.152H72.9871V32.512ZM98.0766 30.944C96.7753 30.944 95.6126 31.2 94.5886 31.712C93.5646 32.2027 92.8286 32.9173 92.3806 33.856V44H88.0926V27.232H92.0286V30.816C92.626 29.664 93.3833 28.7573 94.3006 28.096C95.218 27.4347 96.1886 27.072 97.2126 27.008C97.4473 27.008 97.6286 27.008 97.7566 27.008C97.8846 27.008 97.9913 27.0187 98.0766 27.04V30.944ZM107.993 44.32C106.628 44.32 105.401 44.096 104.313 43.648C103.225 43.1787 102.297 42.5387 101.529 41.728C100.782 40.9173 100.206 39.9893 99.8009 38.944C99.3955 37.8987 99.1929 36.8 99.1929 35.648C99.1929 34.4747 99.3955 33.3653 99.8009 32.32C100.206 31.2747 100.782 30.3467 101.529 29.536C102.297 28.7253 103.225 28.096 104.313 27.648C105.401 27.1787 106.628 26.944 107.993 26.944C109.358 26.944 110.574 27.1787 111.641 27.648C112.729 28.096 113.657 28.7253 114.425 29.536C115.193 30.3467 115.769 31.2747 116.153 32.32C116.558 33.3653 116.761 34.4747 116.761 35.648C116.761 36.8 116.558 37.8987 116.153 38.944C115.769 39.9893 115.193 40.9173 114.425 41.728C113.678 42.5387 112.761 43.1787 111.673 43.648C110.585 44.096 109.358 44.32 107.993 44.32ZM103.609 35.648C103.609 36.6293 103.801 37.504 104.185 38.272C104.569 39.0187 105.092 39.6053 105.753 40.032C106.414 40.4587 107.161 40.672 107.993 40.672C108.804 40.672 109.54 40.4587 110.201 40.032C110.862 39.584 111.385 38.9867 111.769 38.24C112.174 37.472 112.377 36.5973 112.377 35.616C112.377 34.656 112.174 33.792 111.769 33.024C111.385 32.256 110.862 31.6587 110.201 31.232C109.54 30.8053 108.804 30.592 107.993 30.592C107.161 30.592 106.414 30.816 105.753 31.264C105.092 31.6907 104.569 32.288 104.185 33.056C103.801 33.8027 103.609 34.6667 103.609 35.648ZM118.279 50.272C117.49 50.272 116.732 50.144 116.007 49.888C115.282 49.6533 114.62 49.28 114.023 48.768L115.879 45.856C116.114 46.112 116.402 46.2933 116.743 46.4C117.084 46.5067 117.426 46.56 117.767 46.56C118.151 46.56 118.492 46.464 118.791 46.272C119.111 46.1013 119.356 45.856 119.527 45.536C119.719 45.216 119.815 44.8533 119.815 44.448V27.232H124.103V44.128C124.103 45.3227 123.836 46.3893 123.303 47.328C122.791 48.2667 122.098 48.992 121.223 49.504C120.37 50.016 119.388 50.272 118.279 50.272ZM119.815 24.896V20.64H124.103V24.896H119.815ZM135.775 44.32C134.431 44.32 133.215 44.096 132.127 43.648C131.039 43.1787 130.111 42.5493 129.343 41.76C128.575 40.9493 127.978 40.032 127.551 39.008C127.146 37.9627 126.943 36.864 126.943 35.712C126.943 34.112 127.295 32.6507 127.999 31.328C128.724 30.0053 129.748 28.9493 131.071 28.16C132.415 27.3493 133.994 26.944 135.807 26.944C137.642 26.944 139.21 27.3493 140.511 28.16C141.812 28.9493 142.804 30.0053 143.487 31.328C144.191 32.6293 144.543 34.0373 144.543 35.552C144.543 35.808 144.532 36.0747 144.511 36.352C144.49 36.608 144.468 36.8213 144.447 36.992H131.487C131.572 37.8453 131.818 38.592 132.223 39.232C132.65 39.872 133.183 40.3627 133.823 40.704C134.484 41.024 135.188 41.184 135.935 41.184C136.788 41.184 137.588 40.9813 138.335 40.576C139.103 40.1493 139.626 39.5947 139.903 38.912L143.583 39.936C143.178 40.7893 142.591 41.5467 141.823 42.208C141.076 42.8693 140.191 43.392 139.167 43.776C138.143 44.1387 137.012 44.32 135.775 44.32ZM131.391 34.272H140.159C140.074 33.4187 139.828 32.6827 139.423 32.064C139.039 31.424 138.527 30.9333 137.887 30.592C137.247 30.2293 136.532 30.048 135.743 30.048C134.975 30.048 134.271 30.2293 133.631 30.592C133.012 30.9333 132.5 31.424 132.095 32.064C131.711 32.6827 131.476 33.4187 131.391 34.272ZM154.963 44.32C153.598 44.32 152.371 44.096 151.283 43.648C150.195 43.1787 149.267 42.5387 148.499 41.728C147.731 40.896 147.134 39.9573 146.707 38.912C146.302 37.8667 146.099 36.768 146.099 35.616C146.099 34.0373 146.451 32.5973 147.155 31.296C147.88 29.9733 148.904 28.9173 150.227 28.128C151.55 27.3387 153.118 26.944 154.931 26.944C156.744 26.944 158.302 27.3387 159.603 28.128C160.904 28.9173 161.875 29.952 162.515 31.232L158.323 32.512C157.96 31.8933 157.48 31.424 156.883 31.104C156.286 30.7627 155.624 30.592 154.899 30.592C154.088 30.592 153.342 30.8053 152.659 31.232C151.998 31.6373 151.475 32.224 151.091 32.992C150.707 33.7387 150.515 34.6133 150.515 35.616C150.515 36.5973 150.707 37.472 151.091 38.24C151.496 38.9867 152.03 39.584 152.691 40.032C153.352 40.4587 154.088 40.672 154.899 40.672C155.411 40.672 155.891 40.5867 156.339 40.416C156.808 40.2453 157.224 40.0107 157.587 39.712C157.95 39.4133 158.216 39.072 158.387 38.688L162.579 39.968C162.195 40.8 161.63 41.5467 160.883 42.208C160.158 42.8693 159.294 43.392 158.291 43.776C157.31 44.1387 156.2 44.32 154.963 44.32ZM175.266 43.136C174.903 43.2853 174.466 43.456 173.954 43.648C173.442 43.84 172.887 43.9893 172.29 44.096C171.714 44.224 171.127 44.288 170.53 44.288C169.74 44.288 169.015 44.1493 168.354 43.872C167.692 43.5947 167.159 43.1573 166.754 42.56C166.37 41.9413 166.178 41.1413 166.178 40.16V30.528H163.97V27.232H166.178V21.792H170.466V27.232H173.986V30.528H170.466V38.72C170.487 39.296 170.647 39.712 170.946 39.968C171.244 40.224 171.618 40.352 172.066 40.352C172.514 40.352 172.951 40.2773 173.378 40.128C173.804 39.9787 174.146 39.8507 174.402 39.744L175.266 43.136ZM177.915 44V21.28H187.547C188.592 21.28 189.552 21.4933 190.427 21.92C191.302 22.3467 192.059 22.9227 192.699 23.648C193.36 24.3733 193.872 25.184 194.235 26.08C194.598 26.976 194.779 27.8933 194.779 28.832C194.779 30.112 194.48 31.328 193.883 32.48C193.286 33.632 192.464 34.5707 191.419 35.296C190.374 36.0213 189.136 36.384 187.707 36.384H182.331V44H177.915ZM182.331 32.512H187.451C187.984 32.512 188.464 32.3627 188.891 32.064C189.318 31.7653 189.659 31.3387 189.915 30.784C190.171 30.208 190.299 29.5573 190.299 28.832C190.299 28.0427 190.15 27.3707 189.851 26.816C189.574 26.2613 189.2 25.8453 188.731 25.568C188.283 25.2907 187.792 25.152 187.259 25.152H182.331V32.512ZM196.066 39.04C196.066 37.952 196.364 37.0027 196.962 36.192C197.58 35.36 198.434 34.72 199.522 34.272C200.61 33.824 201.858 33.6 203.266 33.6C203.97 33.6 204.684 33.6533 205.41 33.76C206.135 33.8667 206.764 34.0373 207.298 34.272V33.376C207.298 32.3093 206.978 31.488 206.338 30.912C205.719 30.336 204.791 30.048 203.554 30.048C202.636 30.048 201.762 30.208 200.93 30.528C200.098 30.848 199.223 31.3173 198.306 31.936L196.93 29.12C198.039 28.3947 199.17 27.8507 200.322 27.488C201.495 27.1253 202.722 26.944 204.002 26.944C206.391 26.944 208.247 27.5413 209.57 28.736C210.914 29.9307 211.586 31.6373 211.586 33.856V39.2C211.586 39.648 211.66 39.968 211.81 40.16C211.98 40.352 212.247 40.4693 212.61 40.512V44C212.226 44.064 211.874 44.1173 211.554 44.16C211.255 44.2027 210.999 44.224 210.786 44.224C209.932 44.224 209.282 44.032 208.834 43.648C208.407 43.264 208.14 42.7947 208.034 42.24L207.938 41.376C207.212 42.3147 206.306 43.04 205.218 43.552C204.13 44.064 203.02 44.32 201.89 44.32C200.78 44.32 199.778 44.096 198.882 43.648C198.007 43.1787 197.314 42.5493 196.802 41.76C196.311 40.9493 196.066 40.0427 196.066 39.04ZM206.498 39.904C206.732 39.648 206.924 39.392 207.074 39.136C207.223 38.88 207.298 38.6453 207.298 38.432V36.736C206.786 36.5227 206.231 36.3627 205.634 36.256C205.036 36.128 204.471 36.064 203.938 36.064C202.828 36.064 201.911 36.3093 201.186 36.8C200.482 37.2693 200.13 37.8987 200.13 38.688C200.13 39.1147 200.247 39.52 200.482 39.904C200.716 40.288 201.058 40.5973 201.506 40.832C201.954 41.0667 202.487 41.184 203.106 41.184C203.746 41.184 204.375 41.0667 204.994 40.832C205.612 40.576 206.114 40.2667 206.498 39.904ZM215.561 20.64H219.849V38.624C219.849 39.392 219.977 39.9147 220.233 40.192C220.489 40.448 220.841 40.576 221.289 40.576C221.63 40.576 221.982 40.5333 222.345 40.448C222.707 40.3627 223.027 40.256 223.305 40.128L223.881 43.392C223.305 43.6693 222.633 43.8827 221.865 44.032C221.097 44.1813 220.403 44.256 219.785 44.256C218.441 44.256 217.395 43.904 216.649 43.2C215.923 42.4747 215.561 41.4507 215.561 40.128V20.64Z" fill="black"/>
</svg>
