<svg width="158" height="113" viewBox="0 0 158 113" fill="none" xmlns="http://www.w3.org/2000/svg">
<path d="M73.5 27.555H87.25V57.75H73.5V27.555ZM92.75 57.75H101C104.025 57.75 106.5 55.275 106.5 52.25V27.5H92.75V57.75ZM101 8.25H59.75C56.725 8.25 54.25 10.725 54.25 13.75V22H106.5V13.75C106.5 10.725 104.025 8.25 101 8.25ZM54.25 52.25C54.25 55.275 56.725 57.75 59.75 57.75H68V27.5H54.25V52.25Z" fill="black"/>
<path d="M2.57113 96V73.28H12.2031C13.2485 73.28 14.2085 73.4933 15.0831 73.92C15.9578 74.3467 16.7151 74.9227 17.3551 75.648C18.0165 76.3733 18.5285 77.184 18.8911 78.08C19.2538 78.976 19.4351 79.8933 19.4351 80.832C19.4351 82.112 19.1365 83.328 18.5391 84.48C17.9418 85.632 17.1205 86.5707 16.0751 87.296C15.0298 88.0213 13.7925 88.384 12.3631 88.384H6.98713V96H2.57113ZM6.98713 84.512H12.1071C12.6405 84.512 13.1205 84.3627 13.5471 84.064C13.9738 83.7653 14.3151 83.3387 14.5711 82.784C14.8271 82.208 14.9551 81.5573 14.9551 80.832C14.9551 80.0427 14.8058 79.3707 14.5071 78.816C14.2298 78.2613 13.8565 77.8453 13.3871 77.568C12.9391 77.2907 12.4485 77.152 11.9151 77.152H6.98713V84.512ZM32.0766 82.944C30.7753 82.944 29.6126 83.2 28.5886 83.712C27.5646 84.2027 26.8286 84.9173 26.3806 85.856V96H22.0926V79.232H26.0286V82.816C26.626 81.664 27.3833 80.7573 28.3006 80.096C29.218 79.4347 30.1886 79.072 31.2126 79.008C31.4473 79.008 31.6286 79.008 31.7566 79.008C31.8846 79.008 31.9913 79.0187 32.0766 79.04V82.944ZM41.9929 96.32C40.6275 96.32 39.4009 96.096 38.3129 95.648C37.2249 95.1787 36.2969 94.5387 35.5289 93.728C34.7822 92.9173 34.2062 91.9893 33.8009 90.944C33.3955 89.8987 33.1929 88.8 33.1929 87.648C33.1929 86.4747 33.3955 85.3653 33.8009 84.32C34.2062 83.2747 34.7822 82.3467 35.5289 81.536C36.2969 80.7253 37.2249 80.096 38.3129 79.648C39.4009 79.1787 40.6275 78.944 41.9929 78.944C43.3582 78.944 44.5742 79.1787 45.6409 79.648C46.7289 80.096 47.6569 80.7253 48.4249 81.536C49.1929 82.3467 49.7689 83.2747 50.1529 84.32C50.5582 85.3653 50.7609 86.4747 50.7609 87.648C50.7609 88.8 50.5582 89.8987 50.1529 90.944C49.7689 91.9893 49.1929 92.9173 48.4249 93.728C47.6782 94.5387 46.7609 95.1787 45.6729 95.648C44.5849 96.096 43.3582 96.32 41.9929 96.32ZM37.6089 87.648C37.6089 88.6293 37.8009 89.504 38.1849 90.272C38.5689 91.0187 39.0915 91.6053 39.7529 92.032C40.4142 92.4587 41.1609 92.672 41.9929 92.672C42.8035 92.672 43.5395 92.4587 44.2009 92.032C44.8622 91.584 45.3849 90.9867 45.7689 90.24C46.1742 89.472 46.3769 88.5973 46.3769 87.616C46.3769 86.656 46.1742 85.792 45.7689 85.024C45.3849 84.256 44.8622 83.6587 44.2009 83.232C43.5395 82.8053 42.8035 82.592 41.9929 82.592C41.1609 82.592 40.4142 82.816 39.7529 83.264C39.0915 83.6907 38.5689 84.288 38.1849 85.056C37.8009 85.8027 37.6089 86.6667 37.6089 87.648ZM52.2791 102.272C51.4898 102.272 50.7325 102.144 50.0071 101.888C49.2818 101.653 48.6205 101.28 48.0231 100.768L49.8791 97.856C50.1138 98.112 50.4018 98.2933 50.7431 98.4C51.0845 98.5067 51.4258 98.56 51.7671 98.56C52.1511 98.56 52.4925 98.464 52.7911 98.272C53.1111 98.1013 53.3565 97.856 53.5271 97.536C53.7191 97.216 53.8151 96.8533 53.8151 96.448V79.232H58.1031V96.128C58.1031 97.3227 57.8365 98.3893 57.3031 99.328C56.7911 100.267 56.0978 100.992 55.2231 101.504C54.3698 102.016 53.3885 102.272 52.2791 102.272ZM53.8151 76.896V72.64H58.1031V76.896H53.8151ZM69.7749 96.32C68.4309 96.32 67.2149 96.096 66.1269 95.648C65.0389 95.1787 64.1109 94.5493 63.3429 93.76C62.5749 92.9493 61.9775 92.032 61.5509 91.008C61.1455 89.9627 60.9429 88.864 60.9429 87.712C60.9429 86.112 61.2949 84.6507 61.9989 83.328C62.7242 82.0053 63.7482 80.9493 65.0709 80.16C66.4149 79.3493 67.9935 78.944 69.8069 78.944C71.6415 78.944 73.2095 79.3493 74.5109 80.16C75.8122 80.9493 76.8042 82.0053 77.4869 83.328C78.1909 84.6293 78.5429 86.0373 78.5429 87.552C78.5429 87.808 78.5322 88.0747 78.5109 88.352C78.4895 88.608 78.4682 88.8213 78.4469 88.992H65.4869C65.5722 89.8453 65.8175 90.592 66.2229 91.232C66.6495 91.872 67.1829 92.3627 67.8229 92.704C68.4842 93.024 69.1882 93.184 69.9349 93.184C70.7882 93.184 71.5882 92.9813 72.3349 92.576C73.1029 92.1493 73.6255 91.5947 73.9029 90.912L77.5829 91.936C77.1775 92.7893 76.5909 93.5467 75.8229 94.208C75.0762 94.8693 74.1909 95.392 73.1669 95.776C72.1429 96.1387 71.0122 96.32 69.7749 96.32ZM65.3909 86.272H74.1589C74.0735 85.4187 73.8282 84.6827 73.4229 84.064C73.0389 83.424 72.5269 82.9333 71.8869 82.592C71.2469 82.2293 70.5322 82.048 69.7429 82.048C68.9749 82.048 68.2709 82.2293 67.6309 82.592C67.0122 82.9333 66.5002 83.424 66.0949 84.064C65.7109 84.6827 65.4762 85.4187 65.3909 86.272ZM88.9631 96.32C87.5978 96.32 86.3711 96.096 85.2831 95.648C84.1951 95.1787 83.2671 94.5387 82.4991 93.728C81.7311 92.896 81.1338 91.9573 80.7071 90.912C80.3018 89.8667 80.0991 88.768 80.0991 87.616C80.0991 86.0373 80.4511 84.5973 81.1551 83.296C81.8805 81.9733 82.9045 80.9173 84.2271 80.128C85.5498 79.3387 87.1178 78.944 88.9311 78.944C90.7445 78.944 92.3018 79.3387 93.6031 80.128C94.9045 80.9173 95.8751 81.952 96.5151 83.232L92.3231 84.512C91.9605 83.8933 91.4805 83.424 90.8831 83.104C90.2858 82.7627 89.6245 82.592 88.8991 82.592C88.0885 82.592 87.3418 82.8053 86.6591 83.232C85.9978 83.6373 85.4751 84.224 85.0911 84.992C84.7071 85.7387 84.5151 86.6133 84.5151 87.616C84.5151 88.5973 84.7071 89.472 85.0911 90.24C85.4965 90.9867 86.0298 91.584 86.6911 92.032C87.3525 92.4587 88.0885 92.672 88.8991 92.672C89.4111 92.672 89.8911 92.5867 90.3391 92.416C90.8085 92.2453 91.2245 92.0107 91.5871 91.712C91.9498 91.4133 92.2165 91.072 92.3871 90.688L96.5791 91.968C96.1951 92.8 95.6298 93.5467 94.8831 94.208C94.1578 94.8693 93.2938 95.392 92.2911 95.776C91.3098 96.1387 90.2005 96.32 88.9631 96.32ZM109.266 95.136C108.903 95.2853 108.466 95.456 107.954 95.648C107.442 95.84 106.887 95.9893 106.29 96.096C105.714 96.224 105.127 96.288 104.53 96.288C103.74 96.288 103.015 96.1493 102.354 95.872C101.692 95.5947 101.159 95.1573 100.754 94.56C100.37 93.9413 100.178 93.1413 100.178 92.16V82.528H97.9696V79.232H100.178V73.792H104.466V79.232H107.986V82.528H104.466V90.72C104.487 91.296 104.647 91.712 104.946 91.968C105.244 92.224 105.618 92.352 106.066 92.352C106.514 92.352 106.951 92.2773 107.378 92.128C107.804 91.9787 108.146 91.8507 108.402 91.744L109.266 95.136ZM111.915 96V73.28H121.547C122.592 73.28 123.552 73.4933 124.427 73.92C125.302 74.3467 126.059 74.9227 126.699 75.648C127.36 76.3733 127.872 77.184 128.235 78.08C128.598 78.976 128.779 79.8933 128.779 80.832C128.779 82.112 128.48 83.328 127.883 84.48C127.286 85.632 126.464 86.5707 125.419 87.296C124.374 88.0213 123.136 88.384 121.707 88.384H116.331V96H111.915ZM116.331 84.512H121.451C121.984 84.512 122.464 84.3627 122.891 84.064C123.318 83.7653 123.659 83.3387 123.915 82.784C124.171 82.208 124.299 81.5573 124.299 80.832C124.299 80.0427 124.15 79.3707 123.851 78.816C123.574 78.2613 123.2 77.8453 122.731 77.568C122.283 77.2907 121.792 77.152 121.259 77.152H116.331V84.512ZM130.066 91.04C130.066 89.952 130.364 89.0027 130.962 88.192C131.58 87.36 132.434 86.72 133.522 86.272C134.61 85.824 135.858 85.6 137.266 85.6C137.97 85.6 138.684 85.6533 139.41 85.76C140.135 85.8667 140.764 86.0373 141.298 86.272V85.376C141.298 84.3093 140.978 83.488 140.338 82.912C139.719 82.336 138.791 82.048 137.554 82.048C136.636 82.048 135.762 82.208 134.93 82.528C134.098 82.848 133.223 83.3173 132.306 83.936L130.93 81.12C132.039 80.3947 133.17 79.8507 134.322 79.488C135.495 79.1253 136.722 78.944 138.002 78.944C140.391 78.944 142.247 79.5413 143.57 80.736C144.914 81.9307 145.586 83.6373 145.586 85.856V91.2C145.586 91.648 145.66 91.968 145.81 92.16C145.98 92.352 146.247 92.4693 146.61 92.512V96C146.226 96.064 145.874 96.1173 145.554 96.16C145.255 96.2027 144.999 96.224 144.786 96.224C143.932 96.224 143.282 96.032 142.834 95.648C142.407 95.264 142.14 94.7947 142.034 94.24L141.938 93.376C141.212 94.3147 140.306 95.04 139.218 95.552C138.13 96.064 137.02 96.32 135.89 96.32C134.78 96.32 133.778 96.096 132.882 95.648C132.007 95.1787 131.314 94.5493 130.802 93.76C130.311 92.9493 130.066 92.0427 130.066 91.04ZM140.498 91.904C140.732 91.648 140.924 91.392 141.074 91.136C141.223 90.88 141.298 90.6453 141.298 90.432V88.736C140.786 88.5227 140.231 88.3627 139.634 88.256C139.036 88.128 138.471 88.064 137.938 88.064C136.828 88.064 135.911 88.3093 135.186 88.8C134.482 89.2693 134.13 89.8987 134.13 90.688C134.13 91.1147 134.247 91.52 134.482 91.904C134.716 92.288 135.058 92.5973 135.506 92.832C135.954 93.0667 136.487 93.184 137.106 93.184C137.746 93.184 138.375 93.0667 138.994 92.832C139.612 92.576 140.114 92.2667 140.498 91.904ZM149.561 72.64H153.849V90.624C153.849 91.392 153.977 91.9147 154.233 92.192C154.489 92.448 154.841 92.576 155.289 92.576C155.63 92.576 155.982 92.5333 156.345 92.448C156.707 92.3627 157.027 92.256 157.305 92.128L157.881 95.392C157.305 95.6693 156.633 95.8827 155.865 96.032C155.097 96.1813 154.403 96.256 153.785 96.256C152.441 96.256 151.395 95.904 150.649 95.2C149.923 94.4747 149.561 93.4507 149.561 92.128V72.64Z" fill="black"/>
</svg>
